<svg width="40" height="65" viewBox="0 0 40 65" fill="none" xmlns="http://www.w3.org/2000/svg">
<circle cx="20" cy="40" r="20" fill="#B9D5FD"/>
<path d="M26.5 44.65C26.5 45.3833 26.4833 46.1 26.45 46.8C26.45 47.4667 26.4 48.0333 26.3 48.5C26.9333 48.4667 27.5833 48.45 28.25 48.45C28.95 48.4167 29.5667 48.3833 30.1 48.35V51H17V48.8H17.35C18.35 48.7333 19.1333 48.5 19.7 48.1C20.2667 47.6667 20.6667 47.05 20.9 46.25C21.1333 45.45 21.25 44.4167 21.25 43.15V41.55H6.6V38.35L24.4 15.2H26.5V38.05L31.5 38.1V41.55H26.5V44.65ZM21.15 23.45L10.35 37.85L21.25 37.95V23.45H21.15Z" fill="#709FDC"/>
</svg>
