<svg width="40" height="65" viewBox="0 0 40 65" fill="none" xmlns="http://www.w3.org/2000/svg">
<circle cx="20" cy="40" r="20" fill="#B9D5FD"/>
<path d="M13.8 51V48.8C14.8333 48.7333 15.6333 48.5167 16.2 48.15C16.8 47.7833 17.2333 47.2333 17.5 46.5C17.7667 45.7333 17.9 44.75 17.9 43.55L17.8 21.15L11.95 24.8L10.7 22.8L21 15.2H23.15L23.2 44.65C23.2 45.35 23.1833 46.05 23.15 46.75C23.15 47.4167 23.1167 47.9833 23.05 48.45C23.6833 48.3833 24.3667 48.35 25.1 48.35C25.8333 48.3167 26.5 48.2833 27.1 48.25V51H13.8Z" fill="#709FDC"/>
</svg>
