<svg width="40" height="65" viewBox="0 0 40 65" fill="none" xmlns="http://www.w3.org/2000/svg">
<circle cx="20" cy="40" r="20" fill="#B9D5FD"/>
<path d="M18.7 51.8C16.2667 51.8 14.25 51.4333 12.65 50.7C11.0833 49.9667 9.91667 49.0667 9.15 48C8.41667 46.9 8.05 45.8333 8.05 44.8C8.05 43.9667 8.28333 43.25 8.75 42.65C9.21667 42.05 9.86667 41.7333 10.7 41.7C11.4 41.6667 11.9333 41.8 12.3 42.1C12.7 42.4 12.9667 42.75 13.1 43.15C13.2667 43.55 13.35 43.9333 13.35 44.3C13.35 44.6333 13.3 44.9833 13.2 45.35C13.1 45.6833 12.95 46.0333 12.75 46.4C13.0833 47.3667 13.7833 48.0833 14.85 48.55C15.9167 48.9833 17.0667 49.2 18.3 49.2C20.5667 49.2 22.35 48.55 23.65 47.25C24.95 45.95 25.6 44.1667 25.6 41.9C25.6 40.5667 25.3667 39.2667 24.9 38C24.4667 36.7333 23.65 35.7 22.45 34.9C21.25 34.1 19.5167 33.7333 17.25 33.8C16.9833 33.8 16.65 33.8167 16.25 33.85C15.85 33.85 15.4833 33.8667 15.15 33.9V31.2C15.4833 31.2 15.8 31.2 16.1 31.2C16.4 31.2 16.7 31.2 17 31.2C18.6667 31.2 20 30.85 21 30.15C22.0333 29.45 22.7833 28.5833 23.25 27.55C23.7167 26.4833 23.95 25.4333 23.95 24.4C23.9833 23.1 23.8167 21.95 23.45 20.95C23.1167 19.9167 22.55 19.1167 21.75 18.55C20.95 17.95 19.85 17.65 18.45 17.65C17.15 17.65 16.0167 17.9833 15.05 18.65C14.1167 19.3167 13.5167 20.0167 13.25 20.75C13.55 21.1167 13.75 21.5 13.85 21.9C13.9833 22.2667 14.05 22.6167 14.05 22.95C14.05 23.25 13.95 23.6167 13.75 24.05C13.5833 24.45 13.3 24.7833 12.9 25.05C12.5333 25.3167 12.0167 25.45 11.35 25.45C10.55 25.45 9.93333 25.1667 9.5 24.6C9.1 24.0333 8.9 23.35 8.9 22.55C8.9 21.5833 9.26667 20.5333 10 19.4C10.7333 18.2667 11.8667 17.2833 13.4 16.45C14.9333 15.6167 16.8667 15.2 19.2 15.2C21.0667 15.2 22.7833 15.4833 24.35 16.05C25.95 16.6167 27.2167 17.55 28.15 18.85C29.1167 20.1167 29.6 21.8167 29.6 23.95C29.6 24.9167 29.35 25.9333 28.85 27C28.35 28.0667 27.5167 29.05 26.35 29.95C25.2167 30.85 23.65 31.5833 21.65 32.15C24.8167 32.55 27.25 33.6167 28.95 35.35C30.6833 37.05 31.55 39.1167 31.55 41.55C31.55 43.8167 30.9667 45.7167 29.8 47.25C28.6333 48.75 27.0667 49.8833 25.1 50.65C23.1667 51.4167 21.0333 51.8 18.7 51.8Z" fill="#709FDC"/>
</svg>
