<svg width="40" height="65" viewBox="0 0 40 65" fill="none" xmlns="http://www.w3.org/2000/svg">
<circle cx="20" cy="40" r="20" fill="#B9D5FD"/>
<path d="M9.2 51C9.2 49.2333 9.45 47.6667 9.95 46.3C10.4833 44.9333 11.1833 43.6833 12.05 42.55C12.9167 41.4167 13.9 40.3333 15 39.3C16.1 38.2667 17.2167 37.2 18.35 36.1C20.6167 33.9667 22.2333 32.0167 23.2 30.25C24.2 28.45 24.7 26.7 24.7 25C24.7 23.8 24.5333 22.65 24.2 21.55C23.8667 20.4167 23.2833 19.4833 22.45 18.75C21.6167 18.0167 20.4667 17.6667 19 17.7C17.7667 17.7 16.6667 18 15.7 18.6C14.7667 19.1667 14.1167 19.8833 13.75 20.75C14.1167 21.0833 14.3667 21.4667 14.5 21.9C14.6333 22.3333 14.7 22.7333 14.7 23.1C14.7 23.4 14.6 23.7667 14.4 24.2C14.2333 24.6 13.95 24.95 13.55 25.25C13.15 25.55 12.6167 25.7 11.95 25.7C11.1167 25.6667 10.4667 25.3667 10 24.8C9.56667 24.2 9.35 23.4833 9.35 22.65C9.35 21.95 9.56667 21.1667 10 20.3C10.4333 19.4333 11.1 18.6167 12 17.85C12.9 17.0833 14 16.45 15.3 15.95C16.6333 15.45 18.1833 15.2 19.95 15.2C21.2833 15.2 22.5833 15.3667 23.85 15.7C25.1167 16 26.2667 16.5167 27.3 17.25C28.3333 17.95 29.15 18.8833 29.75 20.05C30.35 21.2167 30.65 22.6667 30.65 24.4C30.65 25.2333 30.4833 26.1333 30.15 27.1C29.8167 28.0333 29.25 29.05 28.45 30.15C27.6833 31.25 26.65 32.45 25.35 33.75C24.05 35.05 22.4167 36.5 20.45 38.1C18.35 39.8333 16.6667 41.4667 15.4 43C14.1333 44.5 13.4 45.75 13.2 46.75L22.35 47C23.7167 47.0333 24.9 47.0167 25.9 46.95C26.9333 46.8833 27.7333 46.6167 28.3 46.15C28.9 45.65 29.2 44.8 29.2 43.6H31.25L30.9 51H9.2Z" fill="#709FDC"/>
</svg>
